<svg id="Layer_1" data-name="Layer 1" xmlns="http://www.w3.org/2000/svg" viewBox="0 0 100 100"><defs><style>.cls-1,.cls-2,.cls-3{fill:none;stroke:#132b3e;}.cls-1,.cls-2{stroke-linejoin:round;stroke-width:1.5px;}.cls-2{stroke-linecap:round;}.cls-3{stroke-miterlimit:10;}</style></defs><title>GS_Icons_</title><polygon class="cls-1" points="43 19 43.01 39.95 53.68 33.78 64.36 39.95 64.36 32.01 43 19"/><polygon class="cls-2" points="21.65 31.18 21.65 81 32.33 81 32.33 46.11 43.01 39.95 43 19 21.65 31.18"/><path class="cls-3" d="M50.12,39.94V81H35.89V48.17ZM46,58.8l2-1.15v-3l-2,1.15Zm0-5.51,2-1.16v-3l-2,1.16Zm0-5.52,2-1.15v-3L46,44.8ZM42,61.1,44,60V57l-2,1.15Zm0-5.51,2-1.16v-3l-2,1.16Zm0-5.52,2-1.16V46L42,47.1ZM38,63.4l2-1.15v-3l-2,1.15Zm0-5.52,2-1.15v-3l-2,1.16Zm0-5.51,2-1.16v-3L38,49.4Z"/><polygon class="cls-1" points="66.01 50.52 66.01 81 78.35 81 78.35 57.64 66.01 50.52"/><polygon class="cls-1" points="53.68 57.64 53.68 81 66.01 81 66.01 50.52 53.68 57.64"/><polygon class="cls-1" points="66.02 47.05 57.24 52.12 57.24 38.95 71.48 47.17 71.48 51.2 66.02 47.05"/></svg>